<svg xmlns="http://www.w3.org/2000/svg" width="15" height="15"><path d="M7.504 4.133c-2.129 0-3.848 1.5-3.848 3.363s1.719 3.367 3.848 3.367c2.129 0 3.848-1.504 3.848-3.367s-1.72-3.363-3.848-3.363zm0 5.554c-1.375 0-2.5-.984-2.5-2.19 0-1.208 1.121-2.188 2.5-2.188s2.5.98 2.5 2.187c0 1.207-1.125 2.191-2.5 2.191zm4.902-5.695c0 .438-.402.785-.898.785-.5 0-.899-.351-.899-.785 0-.433.403-.785.899-.785s.898.352.898.785zm2.547.797c-.058-1.05-.332-1.984-1.21-2.75-.88-.77-1.942-1.008-3.145-1.062-1.239-.059-4.953-.059-6.192 0-1.199.05-2.261.293-3.144 1.058-.88.77-1.153 1.7-1.211 2.754-.07 1.082-.07 4.332 0 5.414.054 1.055.332 1.985 1.21 2.754.884.766 1.942 1.004 3.145 1.059 1.239.062 4.953.062 6.192 0 1.203-.051 2.265-.29 3.144-1.059.875-.77 1.153-1.7 1.211-2.754.07-1.082.07-4.328 0-5.414zm-1.601 6.578c-.262.574-.766 1.016-1.426 1.25-.989.34-3.332.262-4.422.262-1.094 0-3.438.078-4.422-.262-.656-.23-1.164-.672-1.43-1.25-.39-.863-.3-2.914-.3-3.87 0-.954-.086-3.009.3-3.868.262-.574.77-1.02 1.43-1.25.984-.344 3.328-.262 4.422-.262 1.09 0 3.437-.078 4.422.262.656.23 1.164.672 1.426 1.25.394.863.3 2.914.3 3.867 0 .957.094 3.012-.3 3.871zm0 0" id="surface1"/></svg>