<svg xmlns="http://www.w3.org/2000/svg" width="16" height="14"><path d="M14.355 4.148c.012.122.012.25.012.372 0 3.793-3.3 8.164-9.332 8.164-1.86 0-3.586-.47-5.035-1.286.262.028.52.036.79.036 1.534 0 2.944-.457 4.073-1.227-1.441-.027-2.652-.852-3.066-1.992.203.027.406.047.617.047.297 0 .59-.035.863-.102C1.773 7.898.648 6.738.648 5.344v-.035a3.64 3.64 0 001.485.363C1.246 5.16.668 4.277.668 3.285c0-.535.164-1.023.45-1.45 1.612 1.743 4.038 2.88 6.76 3a2.822 2.822 0 01-.081-.655c0-1.578 1.46-2.867 3.277-2.867.946 0 1.797.347 2.399.906a7.101 7.101 0 002.082-.692c-.246.664-.766 1.223-1.442 1.578A7.447 7.447 0 0016 2.665a6.743 6.743 0 01-1.645 1.483zm0 0" id="surface1"/></svg>